<svg viewBox="0 0 32 32" fill="none" xmlns="http://www.w3.org/2000/svg">
  <circle cx="16" cy="14" r="6" fill="#000000" />
  <line x1="16" y1="4" x2="16" y2="6" stroke="#000000" stroke-width="2" stroke-linecap="round" />
  <line x1="16" y1="22" x2="16" y2="24" stroke="#000000" stroke-width="2" stroke-linecap="round" />
  <line x1="6" y1="14" x2="8" y2="14" stroke="#000000" stroke-width="2" stroke-linecap="round" />
  <line x1="24" y1="14" x2="26" y2="14" stroke="#000000" stroke-width="2" stroke-linecap="round" />
  <line x1="8.93" y1="6.93" x2="10.34" y2="8.34" stroke="#000000" stroke-width="2" stroke-linecap="round" />
  <line x1="21.66" y1="19.66" x2="23.07" y2="21.07" stroke="#000000" stroke-width="2" stroke-linecap="round" />
  <line x1="8.93" y1="21.07" x2="10.34" y2="19.66" stroke="#000000" stroke-width="2" stroke-linecap="round" />
  <line x1="21.66" y1="8.34" x2="23.07" y2="6.93" stroke="#000000" stroke-width="2" stroke-linecap="round" />
  <path d="M10 27C10 24.5 12 23 14.5 23C15.5 21.5 17 21 19 21C22.5 21 24 23 24 25.5C25.5 25.5 27 26.5 27 28H8C8 26.5 9 27 10 27Z" fill="#000000" fill-opacity="0.8" />
</svg>
